<?xml version="1.0" encoding="UTF-8"?>
<svg width="580px" height="118px" viewBox="0 0 580 118" version="1.1" xmlns="http://www.w3.org/2000/svg" xmlns:xlink="http://www.w3.org/1999/xlink">
    <title>Artboard Copy 151</title>
    <g id="Artboard-Copy-151" stroke="none" stroke-width="1" fill="none" fill-rule="evenodd">
        <polygon id="Path" fill="#FF4B4B" fill-rule="nonzero" points="522.982356 20.6 525.570591 3 548.347062 3 545.888238 20.6"></polygon>
        <path d="M27.6588235,92.0352941 C21.0156863,92.0352941 15.7745098,91.5607843 11.9352941,90.6117647 C8.09607843,89.6627451 5.31372549,88.1098039 3.58823529,85.9529412 C1.8627451,83.7960784 1,80.8627451 1,77.1529412 C1,75.5137255 1.12941176,73.8745098 1.38823529,72.2352941 L1.77647059,69.3882353 C2.46666667,64.5568627 3.80392157,60.8901961 5.78823529,58.3882353 C7.77254902,55.8862745 10.8784314,54.1176471 15.1058824,53.0823529 C19.3333333,52.0470588 25.372549,51.5294118 33.2235294,51.5294118 L35.8117647,51.5294118 C41.9372549,51.5294118 46.7254902,51.9823529 50.1764706,52.8882353 C53.627451,53.7941176 56.1294118,55.2823529 57.6823529,57.3529412 L58.0705882,57.3529412 L58.7176471,51.2705882 C58.8901961,49.7176471 58.9764706,48.7254902 58.9764706,48.2941176 C58.9764706,46.2235294 58.545098,44.7137255 57.6823529,43.7647059 C56.8196078,42.8156863 55.5039216,42.1901961 53.7352941,41.8882353 C51.9666667,41.5862745 49.3568627,41.4352941 45.9058824,41.4352941 L43.3176471,41.4352941 C39.2627451,41.4352941 36.1784314,41.6294118 34.0647059,42.0176471 C31.9509804,42.4058824 30.4843137,43.0098039 29.6647059,43.8294118 C28.845098,44.6490196 28.3058824,45.7921569 28.0470588,47.2588235 L27.9176471,47.6470588 L6.43529412,47.6470588 L6.69411765,45.7058824 C7.38431373,40.7882353 8.95882353,37.0784314 11.4176471,34.5764706 C13.8764706,32.0745098 17.7588235,30.327451 23.0647059,29.3352941 C28.3705882,28.3431373 35.9843137,27.8470588 45.9058824,27.8470588 L49.0117647,27.8470588 C57.2078431,27.8470588 63.5705882,28.3862745 68.1,29.4647059 C72.6294118,30.5431373 75.9509804,32.5058824 78.0647059,35.3529412 C80.1784314,38.2 81.2352941,42.3843137 81.2352941,47.9058824 C81.2352941,50.1490196 80.9333333,53.5568627 80.3294118,58.1294118 L75.6705882,91 L53.2823529,91 L54.4470588,84.0117647 L54.1882353,84.0117647 C52.3764706,86.0823529 50.6078431,87.6784314 48.8823529,88.8 C47.1568627,89.9215686 44.8705882,90.7411765 42.0235294,91.2588235 C39.1764706,91.7764706 35.2941176,92.0352941 30.3764706,92.0352941 L27.6588235,92.0352941 Z M39.6941176,78.1882353 C44.3529412,78.1882353 47.8039216,77.9941176 50.0470588,77.6058824 C52.2901961,77.2176471 53.8431373,76.5705882 54.7058824,75.6647059 C55.5686275,74.7588235 56.1294118,73.4 56.3882353,71.5882353 L56.6470588,70.5529412 C56.7333333,70.1215686 56.7764706,69.5176471 56.7764706,68.7411765 C56.7764706,67.5333333 56.3882353,66.6058824 55.6117647,65.9588235 C54.8352941,65.3117647 53.3901961,64.8588235 51.2764706,64.6 C49.1627451,64.3411765 46.0352941,64.2117647 41.8941176,64.2117647 L40.4705882,64.2117647 C35.8117647,64.2117647 32.3392157,64.427451 30.0529412,64.8588235 C27.7666667,65.2901961 26.1921569,65.9588235 25.3294118,66.8647059 C24.4666667,67.7705882 23.9058824,69.1294118 23.6470588,70.9411765 L23.5176471,71.9764706 L23.3882353,73.2705882 C23.3882353,74.5647059 23.8627451,75.5784314 24.8117647,76.3117647 C25.7607843,77.045098 27.2921569,77.5411765 29.4058824,77.8 C31.5196078,78.0588235 34.5176471,78.1882353 38.4,78.1882353 L39.6941176,78.1882353 Z" id="Shape" fill="#FFFFFF" fill-rule="nonzero"></path>
        <path d="M92.6877828,28.8823529 L115.464253,28.8823529 L113.911312,38.5882353 L114.170136,38.5882353 C116.068175,35.9137255 118.160332,33.8 120.446606,32.2470588 C122.732881,30.6941176 125.450528,29.572549 128.599548,28.8823529 C131.748567,28.1921569 135.609351,27.8470588 140.1819,27.8470588 L141.346606,27.8470588 C148.076018,27.8470588 153.468175,28.4941176 157.523077,29.7882353 C161.577979,31.0823529 164.576018,33.2823529 166.517195,36.3882353 C168.458371,39.4941176 169.428959,43.7215686 169.428959,49.0705882 C169.428959,51.3137255 169.213273,54.2901961 168.7819,58 L163.993665,91 L141.217195,91 L145.746606,58.7764706 C146.00543,56.9647059 146.134842,55.4117647 146.134842,54.1176471 C146.134842,51.6156863 145.660332,49.7392157 144.711312,48.4882353 C143.762293,47.2372549 142.295626,46.3960784 140.311312,45.9647059 C138.326998,45.5333333 135.566214,45.3176471 132.028959,45.3176471 L130.60543,45.3176471 C126.119155,45.3176471 122.538763,45.8352941 119.864253,46.8705882 C117.189744,47.9058824 115.183861,49.4803922 113.846606,51.5941176 C112.509351,53.7078431 111.5819,56.5333333 111.064253,60.0705882 L106.664253,91 L83.8877828,91 L92.6877828,28.8823529 Z" id="Path" fill="#FFFFFF" fill-rule="nonzero"></path>
        <polygon id="Shape" fill="#FFFFFF" fill-rule="nonzero" points="172.21086 91 181.01086 28.8823529 203.78733 28.8823529 194.98733 91"></polygon>
        <path d="M212.39276,28.8823529 L235.169231,28.8823529 L233.61629,38.5882353 L233.875113,38.5882353 C236.204525,35.2235294 239.26727,32.5921569 243.063348,30.6941176 C246.859427,28.7960784 251.733937,27.8470588 257.686878,27.8470588 L259.239819,27.8470588 C266.486878,27.8470588 271.943741,28.9039216 275.610407,31.0176471 C279.277074,33.1313725 281.671192,36.5607843 282.79276,41.3058824 L282.922172,41.3058824 C285.337858,36.8196078 288.724133,33.454902 293.080995,31.2117647 C297.437858,28.9686275 302.980995,27.8470588 309.710407,27.8470588 L311.133937,27.8470588 C317.259427,27.8470588 322.112368,28.4509804 325.69276,29.6588235 C329.273152,30.8666667 331.882956,32.8941176 333.522172,35.7411765 C335.161388,38.5882353 335.980995,42.5137255 335.980995,47.5176471 C335.980995,49.8470588 335.679035,53.3411765 335.075113,58 L330.41629,91 L307.639819,91 L312.298643,58.6470588 C312.557466,56.8352941 312.686878,55.2823529 312.686878,53.9882353 C312.686878,51.6588235 312.277074,49.8686275 311.457466,48.6176471 C310.637858,47.3666667 309.451584,46.5039216 307.898643,46.0294118 C306.345701,45.554902 304.275113,45.3176471 301.686878,45.3176471 L300.39276,45.3176471 C295.99276,45.3176471 292.606486,45.7921569 290.233937,46.7411765 C287.861388,47.6901961 286.157466,49.1784314 285.122172,51.2058824 C284.086878,53.2333333 283.310407,56.1019608 282.79276,59.8117647 L278.39276,91 L255.61629,91 L260.145701,58.6470588 C260.404525,57.4392157 260.533937,55.9294118 260.533937,54.1176471 C260.533937,51.7019608 260.124133,49.8470588 259.304525,48.5529412 C258.484917,47.2588235 257.320211,46.3960784 255.810407,45.9647059 C254.300603,45.5333333 252.294721,45.3176471 249.79276,45.3176471 L248.498643,45.3176471 C244.012368,45.3176471 240.604525,45.7921569 238.275113,46.7411765 C235.945701,47.6901961 234.24178,49.1568627 233.163348,51.1411765 C232.084917,53.1254902 231.286878,56.0588235 230.769231,59.9411765 L226.369231,91 L203.59276,91 L212.39276,28.8823529 Z" id="Path" fill="#FFFFFF" fill-rule="nonzero"></path>
        <path d="M375.60543,92.0352941 C367.064253,92.0352941 360.313273,91.4313725 355.352489,90.2235294 C350.391704,89.0156863 346.703469,86.8156863 344.287783,83.6235294 C341.872097,80.4313725 340.664253,75.8588235 340.664253,69.9058824 C340.664253,66.5411765 340.87994,63.4784314 341.311312,60.7176471 L341.570136,58.2588235 C342.777979,49.6313725 344.848567,43.1607843 347.7819,38.8470588 C350.715234,34.5333333 354.791704,31.6215686 360.011312,30.1117647 C365.23092,28.6019608 372.499548,27.8470588 381.817195,27.8470588 L385.828959,27.8470588 C393.852489,27.8470588 400.301508,28.4078431 405.176018,29.5294118 C410.050528,30.6509804 413.695626,32.6784314 416.111312,35.6117647 C418.526998,38.545098 419.734842,42.6431373 419.734842,47.9058824 C419.734842,50.4078431 419.562293,52.7372549 419.217195,54.8941176 L417.923077,64.6 L363.052489,64.6 L362.793665,66.6705882 C362.534842,67.9647059 362.40543,69.0431373 362.40543,69.9058824 C362.40543,72.1490196 362.944646,73.8098039 364.023077,74.8882353 C365.101508,75.9666667 366.654449,76.6784314 368.6819,77.0235294 C370.709351,77.3686275 373.664253,77.5411765 377.546606,77.5411765 L380.00543,77.5411765 C384.232881,77.5411765 387.446606,77.3039216 389.646606,76.8294118 C391.846606,76.354902 393.399548,75.6215686 394.30543,74.6294118 C395.211312,73.6372549 395.793665,72.2352941 396.052489,70.4235294 L396.052489,70.1647059 L417.40543,70.1647059 L417.146606,72.1058824 C416.370136,77.454902 414.57994,81.5529412 411.776018,84.4 C408.972097,87.2470588 405.046606,89.2313725 399.999548,90.3529412 C394.952489,91.4745098 388.287783,92.0352941 380.00543,92.0352941 L375.60543,92.0352941 Z M398.123077,52.8235294 L398.3819,50.4941176 C398.554449,49.8901961 398.640724,49.027451 398.640724,47.9058824 C398.640724,46.1803922 398.209351,44.8647059 397.346606,43.9588235 C396.483861,43.0529412 395.0819,42.4058824 393.140724,42.0176471 C391.199548,41.6294118 388.460332,41.4352941 384.923077,41.4352941 L382.334842,41.4352941 C377.762293,41.4352941 374.289744,41.7803922 371.917195,42.4705882 C369.544646,43.1607843 367.840724,44.2823529 366.80543,45.8352941 C365.770136,47.3882353 365.036802,49.7176471 364.60543,52.8235294 L398.123077,52.8235294 Z" id="Shape" fill="#FFFFFF" fill-rule="nonzero"></path>
        <path d="M414.716742,113 C412.818703,113 411.265762,112.913725 410.057919,112.741176 L410.446154,110.541176 C411.826546,110.713725 413.33635,110.8 414.975566,110.8 C417.046154,110.8 418.663801,110.390196 419.828507,109.570588 C420.993213,108.75098 421.942232,107.305882 422.675566,105.235294 C423.408899,103.164706 424.077526,100.101961 424.681448,96.0470588 L434.128507,28.8823529 L436.846154,28.8823529 L427.399095,96.1764706 C426.795173,100.403922 426.018703,103.72549 425.069683,106.141176 C424.120664,108.556863 422.826546,110.303922 421.18733,111.382353 C419.548115,112.460784 417.391252,113 414.716742,113 Z" id="Path" stroke="#FFFFFF" stroke-width="2" fill="#FFFFFF" fill-rule="nonzero"></path>
        <path d="M473.150226,91.9058824 C464.263952,91.9058824 457.577677,91.5823529 453.091403,90.9352941 C448.605128,90.2882353 445.412971,89.0588235 443.514932,87.2470588 C441.616893,85.4352941 440.667873,82.6313725 440.667873,78.8352941 C440.667873,77.627451 440.732579,76.527451 440.861991,75.5352941 C440.991403,74.5431373 441.142383,73.4862745 441.314932,72.3647059 L444.032579,72.3647059 C443.601207,74.6941176 443.38552,76.7647059 443.38552,78.5764706 C443.38552,81.6823529 444.226697,83.9901961 445.90905,85.5 C447.591403,87.0098039 450.481599,88.045098 454.579638,88.6058824 C458.677677,89.1666667 464.867873,89.4470588 473.150226,89.4470588 L477.679638,89.4470588 C485.271795,89.4470588 491.052187,88.972549 495.020814,88.0235294 C498.989442,87.0745098 501.793363,85.6078431 503.432579,83.6235294 C505.071795,81.6392157 506.150226,78.7921569 506.667873,75.0823529 C507.012971,72.9254902 507.18552,71.1568627 507.18552,69.7764706 C507.18552,67.1882353 506.387481,65.2254902 504.791403,63.8882353 C503.195324,62.5509804 500.348265,61.6235294 496.250226,61.1058824 C492.152187,60.5882353 486.005128,60.2862745 477.80905,60.2 C469.440422,60.1137255 463.077677,59.7039216 458.720814,58.9705882 C454.363952,58.2372549 451.344344,57.0941176 449.661991,55.5411765 C447.979638,53.9882353 447.138462,51.7882353 447.138462,48.9411765 C447.138462,47.6470588 447.354148,45.6627451 447.78552,42.9882353 C448.303167,39.0196078 449.489442,35.9784314 451.344344,33.8647059 C453.199246,31.7509804 456.28356,30.2411765 460.597285,29.3352941 C464.911011,28.4294118 471.20905,27.9764706 479.491403,27.9764706 L482.726697,27.9764706 C490.146305,27.9764706 495.88356,28.3647059 499.938462,29.1411765 C503.993363,29.9176471 506.926697,31.254902 508.738462,33.1529412 C510.550226,35.0509804 511.456109,37.7686275 511.456109,41.3058824 C511.456109,42.6862745 511.28356,44.7137255 510.938462,47.3882353 L508.350226,47.3882353 C508.695324,44.972549 508.867873,42.9882353 508.867873,41.4352941 C508.867873,38.5019608 508.069834,36.2588235 506.473756,34.7058824 C504.877677,33.1529412 502.224736,32.0529412 498.514932,31.4058824 C494.805128,30.7588235 489.499246,30.4352941 482.597285,30.4352941 L479.361991,30.4352941 C471.597285,30.4352941 465.752187,30.845098 461.826697,31.6647059 C457.901207,32.4843137 455.140422,33.7784314 453.544344,35.5470588 C451.948265,37.3156863 450.891403,39.9686275 450.373756,43.5058824 C450.028658,45.7490196 449.856109,47.4313725 449.856109,48.5529412 C449.856109,50.9686275 450.611011,52.8019608 452.120814,54.0529412 C453.630618,55.3039216 456.369834,56.1882353 460.338462,56.7058824 C464.307089,57.2235294 470.216893,57.5254902 478.067873,57.6117647 C486.695324,57.6980392 493.230618,58.0862745 497.673756,58.7764706 C502.116893,59.4666667 505.244344,60.6313725 507.056109,62.2705882 C508.867873,63.9098039 509.773756,66.3254902 509.773756,69.5176471 C509.773756,70.8980392 509.601207,72.8392157 509.256109,75.3411765 C508.652187,79.654902 507.379638,82.9764706 505.438462,85.3058824 C503.497285,87.6352941 500.348265,89.3176471 495.991403,90.3529412 C491.63454,91.3882353 485.487481,91.9058824 477.550226,91.9058824 L473.150226,91.9058824 Z" id="Path" stroke="#FFFFFF" stroke-width="2" fill="#FFFFFF" fill-rule="nonzero"></path>
    </g>
</svg>