<svg id="e5c6fe42-ae74-4efe-bfa8-5003ba06ab4b" data-name="Layer 1" xmlns="http://www.w3.org/2000/svg" width="1007.5" height="702.27199" viewBox="0 0 1007.5 702.27199"><title>animating</title><rect x="38.5" y="263.5" width="969" height="2" fill="#2f2e41"/><path d="M957.17376,746.7765c-13.8186,18.13036,2.0203,53.4381,2.0203,53.4381s38.24327,5.91263,52.06187-12.21772-2.02029-53.43811-2.02029-53.43811S970.99236,728.64614,957.17376,746.7765Z" transform="translate(-96.25 -98.864)" fill="#6c63ff"/><path d="M233.25,342.864a76,76,0,1,1,76-76A76.08614,76.08614,0,0,1,233.25,342.864Zm0-150a74,74,0,1,0,74,74A74.08385,74.08385,0,0,0,233.25,192.864Z" transform="translate(-96.25 -98.864)" fill="#2f2e41"/><path d="M233.25,175.364c-25.916,0-47-17.15877-47-38.25s21.084-38.25,47-38.25,47,17.15878,47,38.25S259.166,175.364,233.25,175.364Zm0-74.87234c-24.81348,0-45,16.42879-45,36.62234s20.18652,36.62234,45,36.62234,45-16.42879,45-36.62234S258.06348,100.49166,233.25,100.49166Z" transform="translate(-96.25 -98.864)" fill="#2f2e41"/><path d="M211.25,157.864c-5.60742,0-10-8.3457-10-19s4.39258-19,10-19,10,8.34571,10,19S216.85742,157.864,211.25,157.864Zm0-36c-4.33691,0-8,7.78516-8,17s3.66309,17,8,17,8-7.78515,8-17S215.58691,121.864,211.25,121.864Z" transform="translate(-96.25 -98.864)" fill="#2f2e41"/><path d="M255.25,157.864c-5.60742,0-10-8.3457-10-19s4.39258-19,10-19,10,8.34571,10,19S260.85742,157.864,255.25,157.864Zm0-36c-4.33691,0-8,7.78516-8,17s3.66309,17,8,17,8-7.78515,8-17S259.58691,121.864,255.25,121.864Z" transform="translate(-96.25 -98.864)" fill="#2f2e41"/><path d="M331.25,247.864a40,40,0,1,1,40-40A40.04551,40.04551,0,0,1,331.25,247.864Zm0-78a38,38,0,1,0,38,38A38.04323,38.04323,0,0,0,331.25,169.864Z" transform="translate(-96.25 -98.864)" fill="#2f2e41"/><path d="M136.25,247.864a40,40,0,1,1,40-40A40.04551,40.04551,0,0,1,136.25,247.864Zm0-78a38,38,0,1,0,38,38A38.04323,38.04323,0,0,0,136.25,169.864Z" transform="translate(-96.25 -98.864)" fill="#2f2e41"/><path d="M233.25,362.864c-14.29883,0-25.5-4.83154-25.5-11s11.20117-11,25.5-11,25.5,4.83155,25.5,11S247.54883,362.864,233.25,362.864Zm0-20c-14.05664,0-23.5,4.65381-23.5,9s9.44336,9,23.5,9,23.5-4.6538,23.5-9S247.30664,342.864,233.25,342.864Z" transform="translate(-96.25 -98.864)" fill="#2f2e41"/><path d="M572.25,342.864a76,76,0,1,1,76-76A76.08614,76.08614,0,0,1,572.25,342.864Zm0-150a74,74,0,1,0,74,74A74.08385,74.08385,0,0,0,572.25,192.864Z" transform="translate(-96.25 -98.864)" fill="#2f2e41"/><path d="M572.25,192.864a47,47,0,1,1,47-47A47.05306,47.05306,0,0,1,572.25,192.864Zm0-92a45,45,0,1,0,45,45A45.05078,45.05078,0,0,0,572.25,100.864Z" transform="translate(-96.25 -98.864)" fill="#2f2e41"/><path d="M550.25,157.864c-5.60742,0-10-8.3457-10-19s4.39258-19,10-19,10,8.34571,10,19S555.85742,157.864,550.25,157.864Zm0-36c-4.33691,0-8,7.78516-8,17s3.66309,17,8,17,8-7.78515,8-17S554.58691,121.864,550.25,121.864Z" transform="translate(-96.25 -98.864)" fill="#2f2e41"/><path d="M594.25,157.864c-5.60742,0-10-8.3457-10-19s4.39258-19,10-19,10,8.34571,10,19S599.85742,157.864,594.25,157.864Zm0-36c-4.33691,0-8,7.78516-8,17s3.66309,17,8,17,8-7.78515,8-17S598.58691,121.864,594.25,121.864Z" transform="translate(-96.25 -98.864)" fill="#2f2e41"/><path d="M679.25,348.864a40,40,0,1,1,40-40A40.04551,40.04551,0,0,1,679.25,348.864Zm0-78a38,38,0,1,0,38,38A38.04323,38.04323,0,0,0,679.25,270.864Z" transform="translate(-96.25 -98.864)" fill="#2f2e41"/><path d="M458,301.864a40.00079,40.00079,0,1,1,39.75-40A39.921,39.921,0,0,1,458,301.864Zm0-78a38.00075,38.00075,0,1,0,37.7625,38A37.9249,37.9249,0,0,0,458,223.864Z" transform="translate(-96.25 -98.864)" fill="#2f2e41"/><path d="M572.25,362.864c-14.29883,0-25.5-4.83154-25.5-11s11.20117-11,25.5-11,25.5,4.83155,25.5,11S586.54883,362.864,572.25,362.864Zm0-20c-14.05664,0-23.5,4.65381-23.5,9s9.44336,9,23.5,9,23.5-4.6538,23.5-9S586.30664,342.864,572.25,342.864Z" transform="translate(-96.25 -98.864)" fill="#2f2e41"/><path d="M922.25,345.864a76,76,0,1,1,76-76A76.08614,76.08614,0,0,1,922.25,345.864Zm0-150a74,74,0,1,0,74,74A74.08385,74.08385,0,0,0,922.25,195.864Z" transform="translate(-96.25 -98.864)" fill="#2f2e41"/><path d="M962.25,202.864a47,47,0,1,1,47-47A47.05306,47.05306,0,0,1,962.25,202.864Zm0-92a45,45,0,1,0,45,45A45.05078,45.05078,0,0,0,962.25,110.864Z" transform="translate(-96.25 -98.864)" fill="#2f2e41"/><path d="M940.25,185.864c-5.60742,0-10-8.3457-10-19s4.39258-19,10-19,10,8.34571,10,19S945.85742,185.864,940.25,185.864Zm0-36c-4.33691,0-8,7.78516-8,17s3.66309,17,8,17,8-7.78515,8-17S944.58691,149.864,940.25,149.864Z" transform="translate(-96.25 -98.864)" fill="#2f2e41"/><path d="M984.25,185.864c-5.60742,0-10-8.3457-10-19s4.39258-19,10-19,10,8.34571,10,19S989.85742,185.864,984.25,185.864Zm0-36c-4.33691,0-8,7.78516-8,17s3.66309,17,8,17,8-7.78515,8-17S988.58691,149.864,984.25,149.864Z" transform="translate(-96.25 -98.864)" fill="#2f2e41"/><path d="M1029.25,351.864a40,40,0,1,1,40-40A40.04551,40.04551,0,0,1,1029.25,351.864Zm0-78a38,38,0,1,0,38,38A38.04323,38.04323,0,0,0,1029.25,273.864Z" transform="translate(-96.25 -98.864)" fill="#2f2e41"/><path d="M808.25,304.864a40,40,0,1,1,40-40A40.04551,40.04551,0,0,1,808.25,304.864Zm0-78a38,38,0,1,0,38,38A38.04323,38.04323,0,0,0,808.25,226.864Z" transform="translate(-96.25 -98.864)" fill="#2f2e41"/><path d="M891.75,361.864c-14.29883,0-25.5-4.83154-25.5-11s11.20117-11,25.5-11,25.5,4.83155,25.5,11S906.04883,361.864,891.75,361.864Zm0-20c-14.05664,0-23.5,4.65381-23.5,9s9.44336,9,23.5,9,23.5-4.6538,23.5-9S905.80664,341.864,891.75,341.864Z" transform="translate(-96.25 -98.864)" fill="#2f2e41"/><path d="M458.27539,145.89184c-31.29-33.16065-100.14258-20.18164-100.834-20.04639l-.38282-1.96289c.70313-.13721,70.63184-13.31641,102.67188,20.63623Z" transform="translate(-96.25 -98.864)" fill="#6c63ff"/><path d="M466.25,154.864c-5.13721-3.21052-12.28809-6.59494-17.97168-7.72807l9.6333-3.08435,5.4292-8.53189C462.99268,141.30457,464.44873,149.08072,466.25,154.864Z" transform="translate(-96.25 -98.864)" fill="#6c63ff"/><path d="M772.27539,199.89184c-31.291-33.16163-100.14258-20.18164-100.834-20.04639l-.38282-1.96289c.70313-.13672,70.63282-13.31641,102.67188,20.63623Z" transform="translate(-96.25 -98.864)" fill="#6c63ff"/><path d="M780.25,208.864c-5.13721-3.21051-12.28809-6.59494-17.97168-7.72808l9.6333-3.08436,5.4292-8.53186C776.99268,195.30459,778.44873,203.08071,780.25,208.864Z" transform="translate(-96.25 -98.864)" fill="#6c63ff"/><path d="M777.83319,287.60234s-21.17608,0-23.529,12.94094-5.88225,154.11486-3.52935,171.76159,2.3529,14.1174,2.3529,14.1174-4.69065,33.53434,5.88982,35.00213S769.598,482.89292,769.598,482.89292l8.23514-143.52681Z" transform="translate(-96.25 -98.864)" fill="#9e616a"/><path d="M869.59623,287.60234s21.17609,0,23.529,12.94094,5.88225,154.11486,3.52935,171.76159-2.3529,14.1174-2.3529,14.1174,4.69065,33.53434-5.88982,35.00213-10.58047-38.53148-10.58047-38.53148l-8.23515-143.52681Z" transform="translate(-96.25 -98.864)" fill="#9e616a"/><path d="M774.30384,779.35813h-9.41159a21.17583,21.17583,0,0,0-21.17609,21.176v.00008h57.646V773.47588H774.30384Z" transform="translate(-96.25 -98.864)" fill="#2f2e41"/><path d="M864.89044,779.35813H874.302a21.17583,21.17583,0,0,1,21.17609,21.176v.00008h-57.646V773.47588h27.05834Z" transform="translate(-96.25 -98.864)" fill="#2f2e41"/><circle cx="718.05312" cy="131.09232" r="30.58768" fill="#9e616a"/><path d="M807.24442,246.42662s-3.52934,38.82282-8.23514,42.35217,49.41087-2.3529,49.41087-2.3529-18.82319-28.23478-15.29384-37.64637S807.24442,246.42662,807.24442,246.42662Z" transform="translate(-96.25 -98.864)" fill="#9e616a"/><path d="M876.65493,287.60234s-64.70471-27.05833-107.05688,0c0,0-10.588,27.05833-2.3529,42.35217s21.17609,51.76377,8.23514,76.46921,1.17645,14.11739,1.17645,14.11739S760.18645,486.42227,757.83355,538.186s7.0587,237.64275,14.1174,238.8192,29.41123,3.52935,31.76413,0S822.53826,527.598,822.53826,527.598s7.0587,251.76014,14.11739,251.76014,25.88189,0,29.41124-5.88225S899.00747,540.53893,888.41942,493.481,870.77268,422.894,870.77268,422.894s12.94094-8.23515,9.4116-12.94095S859.00819,354.66,867.24334,346.4248,876.65493,287.60234,876.65493,287.60234Z" transform="translate(-96.25 -98.864)" fill="#2f2e41"/><circle cx="737.46453" cy="112.65711" r="49.41087" fill="#2f2e41"/><path d="M864.56854,186.78557a33.28471,33.28471,0,0,1-25.11293-38.46464c-.14422.50592-.27993,1.01624-.40155,1.53384a33.28557,33.28557,0,0,0,64.80618,15.22745c.12162-.5176.22738-1.035.32356-1.55216A33.28476,33.28476,0,0,1,864.56854,186.78557Z" transform="translate(-96.25 -98.864)" fill="#2f2e41"/><circle cx="770.33002" cy="70.17979" r="24.17979" fill="#2f2e41"/><rect x="482.5" y="699.5" width="434" height="2" fill="#2f2e41"/></svg>