<svg id="f00c0d3c-9629-45bc-9464-54ea79fd6c50" data-name="Layer 1" xmlns="http://www.w3.org/2000/svg" width="795.25" height="533.32728" viewBox="0 0 795.25 533.32728"><title>subscriptions</title><path d="M970.65807,689.91824c-.12668-.207-3.11361-5.19436-4.14914-15.55075-.94982-9.50145-.33906-25.51687,7.96675-47.85707,15.73511-42.322-3.62625-76.46974-3.82408-76.80988l.95521-.55416a84.7667,84.7667,0,0,1,7.99747,22.65609,98.84109,98.84109,0,0,1-4.09361,55.09284c-15.70816,42.24978-4.03,62.25046-3.91033,62.44776Z" transform="translate(-202.375 -183.33636)" fill="#e6e6e6"/><circle cx="762.13025" cy="356.70317" r="7.17595" fill="#e6e6e6"/><circle cx="784.76208" cy="383.19897" r="7.17595" fill="#e6e6e6"/><circle cx="769.3062" cy="400.86283" r="7.17595" fill="#e6e6e6"/><circle cx="788.07405" cy="415.76672" r="7.17595" fill="#e6e6e6"/><circle cx="763.78624" cy="438.95054" r="7.17595" fill="#e6e6e6"/><path d="M974.99317,690.18238s-7.17594-17.66386,14.35189-30.91176Z" transform="translate(-202.375 -183.33636)" fill="#e6e6e6"/><path d="M966.16787,689.862S962.902,671.07791,937.625,671.23891Z" transform="translate(-202.375 -183.33636)" fill="#e6e6e6"/><ellipse cx="660.06072" cy="515.32728" rx="134.43928" ry="18" fill="#e6e6e6"/><path d="M877.84293,285.3036l9.84081-2.41188A25.34247,25.34247,0,0,0,912.5179,252.499v0a33.12462,33.12462,0,0,0-33.12462-33.12462h-.00007A33.12462,33.12462,0,0,0,846.26858,252.499v0A26.323,26.323,0,0,0,877.84293,285.3036Z" transform="translate(-202.375 -183.33636)" fill="#2f2e41"/><polygon points="691.986 87.309 707.046 113.212 702.829 125.863 681.143 122.248 670.299 99.357 691.986 87.309" fill="#ffb8b8"/><circle cx="708.63769" cy="43.90316" r="15.72212" fill="#2f2e41"/><path d="M896.49557,218.806a15.71477,15.71477,0,0,1,18.7967-15.417,15.71481,15.71481,0,1,0-9.76426,29.62914A15.70922,15.70922,0,0,1,896.49557,218.806Z" transform="translate(-202.375 -183.33636)" fill="#2f2e41"/><path d="M797.37461,477.26818s-2.40959,16.86715,6.024,15.66235,6.024-15.66235,6.024-15.66235Z" transform="translate(-202.375 -183.33636)" fill="#ffb8b8"/><polygon points="586.566 450.555 580.542 469.832 595 475.856 601.024 450.555 586.566 450.555" fill="#ffb8b8"/><polygon points="692.588 463.143 692.356 483.338 707.935 484.954 706.436 458.99 692.588 463.143" fill="#ffb8b8"/><polygon points="629.939 204.777 702.226 207.186 707.046 369.834 722.708 463.808 684.155 471.037 651.625 314.413 613.072 456.579 578.132 452.965 629.939 204.777" fill="#2f2e41"/><path d="M791.35063,653.16842s-6.024-10.84316-10.84316-4.81918-24.09593,28.91511-24.09593,28.91511-21.68633,21.68633,13.25276,19.27674c0,0,10.84317,0,13.25276-7.22878,0,0,20.48153-3.61439,20.48153-9.63837s-4.438-27.14252-4.438-27.14252Z" transform="translate(-202.375 -183.33636)" fill="#2f2e41"/><path d="M903.39668,664.01159s-6.024-10.84317-10.84317-4.81919-24.09592,28.91511-24.09592,28.91511-21.68633,21.68633,13.25275,19.27674c0,0,10.84317,0,13.25276-7.22878,0,0,20.48154-3.61438,20.48154-9.63837s-4.438-27.14252-4.438-27.14252Z" transform="translate(-202.375 -183.33636)" fill="#2f2e41"/><circle cx="669.09458" cy="78.87571" r="27.71031" fill="#ffb8b8"/><path d="M916.047,301.97034l-43.37267-1.2048-25.30072,28.91511s-22.89112,22.89113-12.048,39.75828v27.71031h69.87818l18.07194-46.98705Z" transform="translate(-202.375 -183.33636)" fill="#d0cde1"/><path d="M911.83025,372.45092s-24.76-51.45655-11.17518-70.90813l4.913-11.62041,13.49092-3.012v3.61439l34.93908,3.61439-8.43357,60.2398-7.22878,138.55156-68.071-12.65036,39.75827-84.33573Z" transform="translate(-202.375 -183.33636)" fill="#575a89"/><path d="M878.69835,295.94636l-39.15587,25.90312s-20.48154,40.96307-25.30072,60.23981-36.14389,98.79328-36.14389,98.79328h37.34869L866.048,318.23509l16.26475-16.26475Z" transform="translate(-202.375 -183.33636)" fill="#575a89"/><path d="M933.51658,376.06531l-21.68633,3.61438s-20.48154,12.048-15.66235,26.50552,19.27674-15.66235,19.27674-15.66235l25.30072-2.40959Z" transform="translate(-202.375 -183.33636)" fill="#ffb8b8"/><polygon points="741.985 115.622 751.623 110.803 792.586 192.729 744.394 215.62 725.118 189.115 750.418 181.886 732.346 151.766 741.985 115.622" fill="#575a89"/><path d="M889.51721,229.36405,868.31658,225.488,852.029,235.72483a24.72648,24.72648,0,0,0-11.36,24.14508l16.32032-4.15849,3.64416-9.17113,4.36286,7.131,10.71689-2.73074,24.67146,30.54831,1.97763-29.51021Z" transform="translate(-202.375 -183.33636)" fill="#2f2e41"/><ellipse cx="884.11994" cy="260.40487" rx="3.01199" ry="5.42158" transform="translate(-238.14241 134.39249) rotate(-19.97743)" fill="#ffb8b8"/><rect x="43.53421" y="170.71282" width="86.09013" height="86.09013" fill="#e6e6e6"/><rect x="59.64856" y="186.53201" width="54.78463" height="54.78463" fill="#6c63ff"/><rect width="173.15856" height="120.33052" fill="#6c63ff"/><path d="M288.95428,206.81549a36.68614,36.68614,0,1,0,36.68614,36.68613A36.794,36.794,0,0,0,288.95428,206.81549Zm0,11.00584a11.00584,11.00584,0,1,1-11.00584,11.00584,11.04276,11.04276,0,0,1,11.00584-11.00584Zm0,52.98324A26.72556,26.72556,0,0,1,266.9426,259.058c.17637-7.33723,14.67445-11.37623,22.01168-11.37623s21.8353,4.039,22.01168,11.37623a26.7701,26.7701,0,0,1-22.01168,11.74662Z" transform="translate(-202.375 -183.33636)" fill="#fff"/><rect x="215.69277" y="170.71282" width="86.09013" height="86.09013" fill="#e6e6e6"/><rect x="231.80712" y="186.53201" width="54.78463" height="54.78463" fill="#6c63ff"/><rect x="172.15856" width="173.15856" height="120.33052" fill="#6c63ff"/><path d="M461.11284,206.81549A36.68614,36.68614,0,1,0,497.799,243.50162,36.794,36.794,0,0,0,461.11284,206.81549Zm0,11.00584A11.00584,11.00584,0,1,1,450.107,228.82717a11.04276,11.04276,0,0,1,11.00584-11.00584Zm0,52.98324A26.72556,26.72556,0,0,1,439.10116,259.058c.17637-7.33723,14.67445-11.37623,22.01168-11.37623s21.8353,4.039,22.01168,11.37623a26.7701,26.7701,0,0,1-22.01168,11.74662Z" transform="translate(-202.375 -183.33636)" fill="#fff"/><rect x="344.43593" width="173.15856" height="120.33052" fill="#e6e6e6"/><path d="M633.39021,206.81549a36.68614,36.68614,0,1,0,36.68613,36.68613A36.794,36.794,0,0,0,633.39021,206.81549Zm0,11.00584a11.00584,11.00584,0,1,1-11.00584,11.00584,11.04276,11.04276,0,0,1,11.00584-11.00584Zm0,52.98324A26.72555,26.72555,0,0,1,611.37853,259.058c.17637-7.33723,14.67445-11.37623,22.01168-11.37623s21.8353,4.039,22.01168,11.37623a26.7701,26.7701,0,0,1-22.01168,11.74662Z" transform="translate(-202.375 -183.33636)" fill="#fff"/><rect x="387.97014" y="170.71282" width="86.09013" height="86.09013" fill="#e6e6e6"/><rect x="404.08449" y="186.53201" width="54.78463" height="54.78463" fill="#fff"/><polygon points="83.771 225.601 74.27 213.385 79.795 209.087 84.293 214.871 99.491 198.829 104.573 203.643 83.771 225.601" fill="#fff"/><polygon points="255.771 225.601 246.27 213.385 251.795 209.087 256.293 214.871 271.491 198.829 276.573 203.643 255.771 225.601" fill="#fff"/><polygon points="427.77 225.601 418.27 213.385 423.795 209.087 428.294 214.871 443.491 198.829 448.573 203.643 427.77 225.601" fill="#e6e6e6"/></svg>