<svg id="bd47f4ee-de70-45fd-a91d-1aaa2360a1b9" data-name="Layer 1" xmlns="http://www.w3.org/2000/svg" width="742.75177" height="706.44" viewBox="0 0 742.75177 706.44"><title>design_objectives</title><path d="M971.37589,235.76779v-54.44A125.247,125.247,0,0,1,890.51712,121.139l-.00128.001a23.78917,23.78917,0,0,1-14.22,4.68H833.06735A178.54913,178.54913,0,0,0,971.37589,235.76779Z" transform="translate(-228.62411 -96.78)" fill="#e6e6e6"/><path d="M971.37589,178.20779V125.91a29.12112,29.12112,0,0,0-29.13-29.13h-41.97v5.05a23.91661,23.91661,0,0,1-7.3988,17.32885A122.29831,122.29831,0,0,0,971.37589,178.20779Z" transform="translate(-228.62411 -96.78)" fill="#e6e6e6"/><path d="M769.48715,125.82H742.45584a23.987,23.987,0,0,1-23.98-23.99V96.78h-39.38a29.12752,29.12752,0,0,0-29.13,29.13v648.2a29.07916,29.07916,0,0,0,29.13,29.11h263.15a28.362,28.362,0,0,0,3.59-.22,29.14642,29.14642,0,0,0,25.54-28.88995V296.93784C875.66684,285.84769,795.91776,217.55875,769.48715,125.82Z" transform="translate(-228.62411 -96.78)" fill="#e6e6e6"/><path d="M829.78739,125.82H772.64713c26.3006,90.03875,104.67969,157.02771,198.72876,168.06787V238.86777A181.6678,181.6678,0,0,1,829.78739,125.82Z" transform="translate(-228.62411 -96.78)" fill="#e6e6e6"/><path d="M675.32923,338.59132a4.00427,4.00427,0,0,0-4,4v66.97559a4.00469,4.00469,0,0,0,4,4.00048h270a4.00468,4.00468,0,0,0,4-4.00048V342.59132a4.00426,4.00426,0,0,0-4-4Z" transform="translate(-228.62411 -96.78)" fill="#fff"/><circle cx="481.70512" cy="279.29911" r="21" fill="#3f3d56"/><path d="M758.82923,362.07911a3.5,3.5,0,0,0,0,7h165a3.5,3.5,0,0,0,0-7Z" transform="translate(-228.62411 -96.78)" fill="#e6e6e6"/><path d="M758.82923,383.07911a3.5,3.5,0,0,0,0,7h165a3.5,3.5,0,0,0,0-7Z" transform="translate(-228.62411 -96.78)" fill="#e6e6e6"/><path d="M675.32923,453.59132a4.00427,4.00427,0,0,0-4,4v66.97559a4.00469,4.00469,0,0,0,4,4.00048h270a4.00468,4.00468,0,0,0,4-4.00048V457.59132a4.00426,4.00426,0,0,0-4-4Z" transform="translate(-228.62411 -96.78)" fill="#fff"/><circle cx="481.70512" cy="394.29911" r="21" fill="#3f3d56"/><path d="M758.82923,477.07911a3.5,3.5,0,0,0,0,7h165a3.5,3.5,0,0,0,0-7Z" transform="translate(-228.62411 -96.78)" fill="#e6e6e6"/><path d="M758.82923,498.07911a3.5,3.5,0,0,0,0,7h165a3.5,3.5,0,0,0,0-7Z" transform="translate(-228.62411 -96.78)" fill="#e6e6e6"/><path d="M675.32923,568.59132a4.00427,4.00427,0,0,0-4,4v66.97559a4.00469,4.00469,0,0,0,4,4.00048h270a4.00468,4.00468,0,0,0,4-4.00048V572.59132a4.00426,4.00426,0,0,0-4-4Z" transform="translate(-228.62411 -96.78)" fill="#fff"/><circle cx="481.70512" cy="509.29911" r="21" fill="#3f3d56"/><path d="M758.82923,592.07911a3.5,3.5,0,0,0,0,7h165a3.5,3.5,0,0,0,0-7Z" transform="translate(-228.62411 -96.78)" fill="#e6e6e6"/><path d="M758.82923,613.07911a3.5,3.5,0,0,0,0,7h165a3.5,3.5,0,0,0,0-7Z" transform="translate(-228.62411 -96.78)" fill="#e6e6e6"/><circle cx="581.70512" cy="632.29911" r="50" fill="#6c63ff"/><polygon points="611.705 632.299 584.705 632.299 584.705 605.299 578.705 605.299 578.705 632.299 551.705 632.299 551.705 638.299 578.705 638.299 578.705 665.299 584.705 665.299 584.705 638.299 611.705 638.299 611.705 632.299" fill="#fff"/><path d="M336.82194,744.97593,338.42,756.738s40.65322,13.89583,32.70964,20.26-72.17671,6.66464-73.51458,3.04125-1.6352-19.29688,1.98819-20.63475,10.322-14.79089,10.322-14.79089Z" transform="translate(-228.62411 -96.78)" fill="#2f2e41"/><polygon points="149.217 406.744 123.726 565.154 111.891 658.925 73.654 657.104 86.399 501.426 119.174 413.117 149.217 406.744" fill="#2f2e41"/><path d="M405.153,503.52434l3.6416,14.56638s13.656,38.23674,1.82079,36.41594-17.29757-34.59515-17.29757-34.59515l-1.8208-11.83518Z" transform="translate(-228.62411 -96.78)" fill="#ffb6b6"/><path d="M286.80115,498.062l28.22236,124.72461,34.59515,146.57417L382.393,757.52555,358.72264,639.17373s3.6416-25.49116,0-38.23674-3.64159-68.2799-3.64159-68.2799l27.312-23.67036V463.49189L310.47152,457.094Z" transform="translate(-228.62411 -96.78)" fill="#2f2e41"/><path d="M382.47345,754.60787l1.75882,11.73912s40.83955,13.33827,32.9838,19.81054-72.07876,7.65161-73.46609,4.04687-1.89908-19.2727,1.70566-20.66,10.11865-14.93074,10.11865-14.93074Z" transform="translate(-228.62411 -96.78)" fill="#2f2e41"/><circle cx="168.79047" cy="195.07667" r="27.31196" fill="#ffb6b6"/><polygon points="150.583 191.435 119.629 207.822 131.464 246.059 144.21 246.059 151.493 236.955 148.762 231.493 170.611 215.105 150.583 191.435" fill="#ffb6b6"/><polygon points="140.568 242.417 140.113 227.396 127.679 203.56 80.937 222.844 97.324 371.239 153.769 374.88 151.948 312.063 161.052 243.783 157.866 224.209 140.568 242.417" fill="#6c63ff"/><path d="M372.83382,412.02928,350.91117,302.56487s-49.99884,10.231-54.55083,17.51415-10.92478,154.76776-10.92478,154.76776-9.104,29.13276,0,29.13276,45.51993-26.40156,47.34072-16.38718,3.6416,15.47678,16.38718,12.74558,20.93917-24.58076,20.93917-24.58076-2.7312,43.69913,2.73119,43.69913,13.656,2.7312,13.656-1.82079V420.22287l21.84957-79.20468-21.6186-19.85684-9.33495,7.11126Z" transform="translate(-228.62411 -96.78)" fill="#2f2e41"/><path d="M402.42178,343.29419l6.37279-1.8208s1.82079,12.74558,1.82079,15.47677-5.46239,56.44472-5.46239,56.44472l4.552,91.95026-20.93917,9.104L382.393,410.66368Z" transform="translate(-228.62411 -96.78)" fill="#2f2e41"/><path d="M370.10263,294.58786s-10.92479-30.95355,13.656-38.23674,35.50554.9104,39.14714,5.46239c3.8151,4.76888,21.84956,28.22236,10.92478,33.68475s-15.932-1.3656-15.932-4.09679-16.38717,0-23.67036,2.73119a10.90712,10.90712,0,0,1-11.817-2.276s-1.839-8.64878-7.3014-4.09679S370.10263,294.58786,370.10263,294.58786Z" transform="translate(-228.62411 -96.78)" fill="#2f2e41"/><path d="M453.0465,526.49629a4.00426,4.00426,0,0,0-5.382-1.74173L388.02458,555.231a4.00469,4.00469,0,0,0-1.74218,5.38226L509.14265,801.0407a4.0047,4.0047,0,0,0,5.38248,1.74152L574.165,772.30578a4.00426,4.00426,0,0,0,1.74174-5.382Z" transform="translate(-228.62411 -96.78)" fill="#e6e6e6"/><circle cx="206.96689" cy="477.94118" r="21" fill="#6c63ff"/><path d="M470.127,611.53855a3.5,3.5,0,0,0-6.23331,3.18526L538.97491,761.6517a3.5,3.5,0,1,0,6.2333-3.18527Z" transform="translate(-228.62411 -96.78)" fill="#fff"/><path d="M451.427,621.09434a3.5,3.5,0,1,0-6.23331,3.18527L520.275,771.2075a3.5,3.5,0,0,0,6.23331-3.18527Z" transform="translate(-228.62411 -96.78)" fill="#fff"/><polygon points="85.865 532.834 111.865 651.834 114.079 641.584 85.865 532.834" opacity="0.2"/><path d="M345.03944,522.00414a4.00426,4.00426,0,0,0-3.32366-4.57747l-66.14792-10.49681a4.00468,4.00468,0,0,0-4.57795,3.32359l-42.316,266.66337a4.00469,4.00469,0,0,0,3.32415,4.57755L298.146,791.99118a4.00426,4.00426,0,0,0,4.57747-3.32366Z" transform="translate(-228.62411 -96.78)" fill="#e6e6e6"/><circle cx="73.9054" cy="453.91631" r="21" fill="#6c63ff"/><path d="M308.75529,600.79111a3.5,3.5,0,1,0-6.91349-1.09708L275.982,762.655a3.5,3.5,0,0,0,6.9135,1.09709Z" transform="translate(-228.62411 -96.78)" fill="#fff"/><path d="M288.01481,597.49987a3.5,3.5,0,1,0-6.9135-1.09708l-25.85977,162.961a3.5,3.5,0,1,0,6.91349,1.09708Z" transform="translate(-228.62411 -96.78)" fill="#fff"/><path d="M316.153,480.52434l3.6416,14.56638s13.656,38.23674,1.82079,36.41594-17.29757-34.59515-17.29757-34.59515l-1.8208-11.83518Z" transform="translate(-228.62411 -96.78)" fill="#ffb6b6"/><polygon points="80.937 224.776 68.191 223.754 30.865 330.271 73.654 404.013 103.697 381.253 71.833 329.36 96.414 262.901 80.937 224.776" fill="#2f2e41"/></svg>